<!-- <svg t="1724742486786" class="icon" viewBox="0 0 1496 1024" version="1.1" xmlns="http://www.w3.org/2000/svg" p-id="10269" width="200" height="200"><path d="M329.563218 659.126437c43.157088-39.233716 62.773946-94.16092 58.850575-149.088123 3.923372-43.157088-11.770115-86.314176-39.233716-117.701149-23.54023-19.616858-51.003831-31.386973-82.390805-31.386973 27.463602-11.770115 47.08046-31.386973 58.850575-58.850575 19.616858-35.310345 31.386973-78.467433 31.386973-121.624521C360.950192 129.471264 345.256705 78.467433 309.94636 39.233716c-39.233716-27.463602-86.314176-39.233716-133.394636-39.233716H0v721.900383h180.475096c54.927203 3.923372 109.854406-19.616858 149.088122-62.773946zM58.850575 58.850575h117.701149c66.697318 0 117.701149 54.927203 117.70115 121.624521 0 39.233716-15.693487 82.390805-35.310345 113.777778-19.616858 27.463602-51.003831 39.233716-82.390805 35.310344h-117.701149V58.850575z m31.386973 329.563218h90.237548c94.16092 0 149.088123 51.003831 149.088122 121.624521 0 31.386973-11.770115 62.773946-31.386973 90.237548-27.463602 35.310345-74.544061 58.850575-117.701149 58.850575h-117.70115V388.413793h27.463602zM478.651341 0h58.850575v721.900383h-58.850575V0z m482.574713 655.203065c39.233716-51.003831 54.927203-109.854406 54.927203-172.628352 3.923372-62.773946-15.693487-125.547893-51.003832-176.551724-31.386973-43.157088-82.390805-66.697318-137.318007-62.773947-54.927203-3.923372-109.854406 23.54023-145.164751 66.697318-39.233716 51.003831-58.850575 113.777778-54.927203 176.551724-3.923372 62.773946 15.693487 125.547893 51.003831 176.551724 35.310345 43.157088 86.314176 66.697318 137.318008 62.773947 58.850575-3.923372 109.854406-27.463602 145.164751-70.62069z m-274.636016-176.551724c-3.923372-47.08046 11.770115-94.16092 35.310345-133.394636 23.54023-27.463602 62.773946-47.08046 102.007663-47.08046s74.544061 15.693487 98.084291 47.08046c47.08046 82.390805 47.08046 184.398467 0 266.789272-23.54023 31.386973-58.850575 47.08046-98.084291 47.08046s-74.544061-15.693487-98.084291-47.08046c-31.386973-39.233716-43.157088-86.314176-39.233717-133.394636zM1490.881226 749.363985v-510.038315h-58.850575v58.850575c-27.463602-43.157088-78.467433-66.697318-129.471264-58.850575-51.003831-3.923372-105.931034 19.616858-137.318008 58.850575-39.233716 51.003831-58.850575 113.777778-58.850574 180.475096 0 54.927203 23.54023 109.854406 58.850574 149.088123 27.463602 39.233716 70.62069 58.850575 117.70115 58.850574 51.003831 3.923372 102.007663-15.693487 133.394636-58.850574l15.693486-31.386974V745.440613c0 39.233716-11.770115 78.467433-27.463601 113.777778l-35.310345 43.157088c-66.697318 39.233716-153.011494 39.233716-219.708812 0-113.777778-54.927203-333.48659-51.003831-372.720307 90.237548l58.850575 31.386973c19.616858-39.233716 51.003831-70.62069 90.237548-90.237548 23.54023-11.770115 141.241379 3.923372 188.321839 23.54023 11.770115 7.846743 27.463602 11.770115 43.157088 15.693487h7.846743c27.463602 7.846743 58.850575 15.693487 90.237548 15.693486 149.088123 0 235.402299-58.850575 235.402299-239.32567z m-94.160919-168.704981c-27.463602 27.463602-62.773946 47.08046-102.007663 51.003831-39.233716-3.923372-74.544061-19.616858-102.007663-51.003831-23.54023-31.386973-35.310345-70.62069-31.386973-109.854406-3.923372-43.157088 7.846743-86.314176 35.310344-125.547893 23.54023-31.386973 62.773946-47.08046 98.084292-47.08046s74.544061 11.770115 102.007663 35.310345c19.616858 35.310345 31.386973 74.544061 35.310344 113.777778v31.386973c0 39.233716-11.770115 74.544061-35.310344 102.007663z" fill="#ffcc25" p-id="10270"></path></svg> -->
<!-- <svg t="1724742731257" class="icon" viewBox="0 0 1025 1024" version="1.1" xmlns="http://www.w3.org/2000/svg" p-id="12213" width="200" height="200"><path d="M957.824 384l-57.408 0c-35.168 0-65.984-29.728-68.384-64l0 0c0-182.656-147.264-320-331.2-320l-167.84 0c-183.808 0-332.864 148-332.992 330.656l0 362.784c0 182.656 149.184 330.528 332.992 330.528l358.432 0c183.936 0 332.608-147.872 332.608-330.528l0-234.368c0-36.512-29.44-75.072-66.208-75.072zM320.032 256l192 0c35.2 0 64 28.8 64 64s-28.8 64-64 64l-192 0c-35.2 0-64-28.8-64-64s28.8-64 64-64zM704.032 768l-384 0c-35.2 0-64-28.8-64-64s28.8-64 64-64l384 0c35.2 0 64 28.8 64 64s-28.8 64-64 64z" p-id="12214" fill="#2c2c2c"></path></svg> -->
<!-- <svg t="1724742986015" class="icon" viewBox="0 0 1418 1024" version="1.1" xmlns="http://www.w3.org/2000/svg" p-id="24658" width="200" height="200"><path d="M487.131429 1019.611429c-65.828571 0-130.194286-13.165714-190.171429-38.034286-58.514286-24.868571-109.714286-59.977143-155.062857-103.862857-45.348571-45.348571-80.457143-96.548571-103.862857-155.062857C13.165714 662.674286 0 598.308571 0 532.48s13.165714-130.194286 38.034286-190.171429c24.868571-58.514286 59.977143-109.714286 103.862857-155.062857s96.548571-80.457143 155.062857-103.862857c59.977143-24.868571 124.342857-38.034286 190.171429-38.034286s130.194286 13.165714 190.171428 38.034286c58.514286 24.868571 109.714286 59.977143 155.062857 103.862857s80.457143 96.548571 103.862857 155.062857c24.868571 59.977143 38.034286 124.342857 38.034286 190.171429s-13.165714 130.194286-38.034286 190.171429c-24.868571 58.514286-59.977143 109.714286-103.862857 155.062857-45.348571 45.348571-96.548571 80.457143-155.062857 103.862857-61.44 24.868571-124.342857 38.034286-190.171428 38.034286z m0-942.08c-61.44 0-121.417143 11.702857-177.005715 35.108571-54.125714 23.405714-102.4 55.588571-144.822857 98.011429s-74.605714 90.697143-98.011428 144.822857c-23.405714 55.588571-35.108571 114.102857-35.108572 175.542857s11.702857 121.417143 35.108572 177.005714c23.405714 54.125714 55.588571 102.4 98.011428 144.822857s90.697143 74.605714 144.822857 98.011429c55.588571 23.405714 115.565714 35.108571 177.005715 35.108571s121.417143-11.702857 177.005714-35.108571c54.125714-23.405714 102.4-55.588571 144.822857-98.011429 42.422857-42.422857 74.605714-90.697143 98.011429-144.822857 23.405714-55.588571 35.108571-115.565714 35.108571-177.005714S930.377143 409.6 906.971429 354.011429c-23.405714-54.125714-55.588571-102.4-98.011429-144.822858-42.422857-42.422857-90.697143-74.605714-144.822857-98.011428-57.051429-21.942857-115.565714-33.645714-177.005714-33.645714z" p-id="24659"></path><path d="M563.2 538.331429c0-40.96-33.645714-74.605714-74.605714-74.605715s-74.605714 33.645714-74.605715 74.605715c0 10.24 2.925714 20.48 5.851429 30.72-16.091429 17.554286-33.645714 38.034286-51.2 64.365714-36.571429 55.588571-77.531429 143.36-87.771429 258.925714H321.828571c7.314286-84.845714 33.645714-163.84 78.994286-232.594286 14.628571-21.942857 30.72-43.885714 43.885714-59.977142 11.702857 8.777143 26.331429 13.165714 42.422858 13.165714 42.422857 1.462857 76.068571-32.182857 76.068571-74.605714z" p-id="24660"></path><path d="M487.131429 770.925714v-33.645714c114.102857 0 206.262857-92.16 206.262857-206.262857s-92.16-206.262857-206.262857-206.262857-206.262857 92.16-206.262858 206.262857h-33.645714c0-64.365714 24.868571-124.342857 70.217143-169.691429s105.325714-70.217143 169.691429-70.217143 124.342857 24.868571 169.691428 70.217143c45.348571 45.348571 70.217143 105.325714 70.217143 169.691429s-24.868571 124.342857-70.217143 169.691428c-45.348571 45.348571-106.788571 70.217143-169.691428 70.217143z" p-id="24661"></path><path d="M1378.011429 55.588571C1361.92 73.142857 1345.828571 90.697143 1328.274286 106.788571c-2.925714 2.925714-147.748571 21.942857-160.914286 38.034286s111.177143 5.851429 108.251429 8.777143c-19.017143 16.091429-39.497143 30.72-59.977143 43.885714-4.388571 2.925714-136.045714 8.777143-150.674286 23.405715-13.165714 13.165714 87.771429 14.628571 81.92 17.554285-58.514286 30.72-125.805714 55.588571-201.874286 76.068572-49.737143 13.165714-92.16 61.44-125.805714 144.822857-16.091429 39.497143-26.331429 65.828571-30.72 77.531428-2.925714 7.314286-14.628571 10.24-23.405714 7.314286s-14.628571-14.628571-11.702857-23.405714C813.348571 352.548571 906.971429 220.891429 1015.222857 122.88c24.868571-21.942857 58.514286-39.497143 87.771429-45.348571 119.954286-26.331429 197.485714-23.405714 275.017143-21.942858z" fill="#D5D7D9" p-id="24662"></path><path d="M540.46476235 1019.611429c-65.828571 0-130.194286-13.165714-190.171429-38.034286-58.514286-24.868571-109.714286-59.977143-155.062857-103.862857-45.348571-45.348571-80.457143-96.548571-103.862857-155.062857C66.49904735 662.674286 53.33333335 598.308571 53.33333335 532.48s13.165714-130.194286 38.034286-190.171429c24.868571-58.514286 59.977143-109.714286 103.862857-155.062857s96.548571-80.457143 155.062857-103.862857c59.977143-24.868571 124.342857-38.034286 190.171429-38.034286s130.194286 13.165714 190.171428 38.034286c58.514286 24.868571 109.714286 59.977143 155.062857 103.862857s80.457143 96.548571 103.862857 155.062857c24.868571 59.977143 38.034286 124.342857 38.034286 190.171429s-13.165714 130.194286-38.034286 190.171429c-24.868571 58.514286-59.977143 109.714286-103.862857 155.062857-45.348571 45.348571-96.548571 80.457143-155.062857 103.862857-61.44 24.868571-124.342857 38.034286-190.171428 38.034286z m0-942.08c-61.44 0-121.417143 11.702857-177.005715 35.108571-54.125714 23.405714-102.4 55.588571-144.822857 98.011429s-74.605714 90.697143-98.011428 144.822857c-23.405714 55.588571-35.108571 114.102857-35.108572 175.542857s11.702857 121.417143 35.108572 177.005714c23.405714 54.125714 55.588571 102.4 98.011428 144.822857s90.697143 74.605714 144.822857 98.011429c55.588571 23.405714 115.565714 35.108571 177.005715 35.108571s121.417143-11.702857 177.005714-35.108571c54.125714-23.405714 102.4-55.588571 144.822857-98.011429 42.422857-42.422857 74.605714-90.697143 98.011429-144.822857 23.405714-55.588571 35.108571-115.565714 35.108571-177.005714S983.71047635 409.6 960.30476235 354.011429c-23.405714-54.125714-55.588571-102.4-98.011429-144.822858-42.422857-42.422857-90.697143-74.605714-144.822857-98.011428-57.051429-21.942857-115.565714-33.645714-177.005714-33.645714z" fill="#8a8a8a" p-id="24663"></path><path d="M616.53333335 538.331429c0-40.96-33.645714-74.605714-74.605714-74.605715s-74.605714 33.645714-74.605715 74.605715c0 10.24 2.925714 20.48 5.851429 30.72-16.091429 17.554286-33.645714 38.034286-51.2 64.365714-36.571429 55.588571-77.531429 143.36-87.771429 258.925714H375.16190435c7.314286-84.845714 33.645714-163.84 78.994286-232.594286 14.628571-21.942857 30.72-43.885714 43.885714-59.977142 11.702857 8.777143 26.331429 13.165714 42.422858 13.165714 42.422857 1.462857 76.068571-32.182857 76.068571-74.605714z" fill="#8a8a8a" p-id="24664"></path><path d="M540.46476235 770.925714v-33.645714c114.102857 0 206.262857-92.16 206.262857-206.262857s-92.16-206.262857-206.262857-206.262857-206.262857 92.16-206.262858 206.262857h-33.645714c0-64.365714 24.868571-124.342857 70.217143-169.691429s105.325714-70.217143 169.691429-70.217143 124.342857 24.868571 169.691428 70.217143c45.348571 45.348571 70.217143 105.325714 70.217143 169.691429s-24.868571 124.342857-70.217143 169.691428c-45.348571 45.348571-106.788571 70.217143-169.691428 70.217143z" fill="#8a8a8a" p-id="24665"></path><path d="M1378.011429 55.588571C1361.92 73.142857 1345.828571 90.697143 1328.274286 106.788571c-2.925714 2.925714-147.748571 21.942857-160.914286 38.034286s111.177143 5.851429 108.251429 8.777143c-19.017143 16.091429-39.497143 30.72-59.977143 43.885714-4.388571 2.925714-136.045714 8.777143-150.674286 23.405715-13.165714 13.165714 87.771429 14.628571 81.92 17.554285-58.514286 30.72-125.805714 55.588571-201.874286 76.068572-49.737143 13.165714-92.16 61.44-125.805714 144.822857-16.091429 39.497143-26.331429 65.828571-30.72 77.531428-2.925714 7.314286-14.628571 10.24-23.405714 7.314286s-14.628571-14.628571-11.702857-23.405714C813.348571 352.548571 906.971429 220.891429 1015.222857 122.88c24.868571-21.942857 58.514286-39.497143 87.771429-45.348571 119.954286-26.331429 197.485714-23.405714 275.017143-21.942858z" fill="#8FBC8F" p-id="24666" width="100px"></path></svg> -->
<svg t="1724743058924" class="icon" viewBox="0 0 1024 1024" version="1.1" xmlns="http://www.w3.org/2000/svg" p-id="25325" width="200" height="200"><path d="M510.970693 0.005235c284.726724-1.276801 510.720581 233.654666 510.720581 510.720581s-225.993857 514.550985-518.38139 510.720581C223.690366 1017.615993-8.687498 786.51493 0.250112 495.404199 7.910921 222.168688 233.904778 0.005235 510.970693 0.005235zM278.592829 164.712622c-3.830404 2.553603-6.384007 3.830404-8.93761 5.107206C129.207059 269.410341 64.090185 448.162545 106.224633 614.146734 162.403897 832.479782 382.013746 966.543935 602.900398 918.025479 813.572637 870.783826 956.5744 663.94199 923.377562 450.716148c-15.321617-97.03691-57.456065-180.029005-130.233748-246.422681-118.742535-105.974521-255.360291-135.340954-408.576465-90.652903-6.384007 1.276801-7.660809 3.830404-7.660808 10.214412 2.553603 21.705625 3.830404 43.411249 7.660808 63.840072 11.491213 77.884889 42.134448 148.108969 90.652903 210.67224 2.553603 3.830404 5.107206 5.107206 10.214412 3.830405 16.598419-5.107206 31.920036-5.107206 48.518455-2.553603 56.179264 10.214412 93.206506 66.393676 81.715293 123.849741-10.214412 54.902462-66.393676 91.929705-121.296138 81.715292-56.179264-10.214412-90.652903-58.732867-85.545697-116.188932 0-5.107206 1.276801-10.214412-3.830404-15.321617-67.670477-80.438492-105.974521-173.644998-122.57294-277.065915 0-8.93761-2.553603-19.152022-3.830404-31.920037z" fill="#0A3457" p-id="25326"></path><path d="M245.395991 472.421772h109.804925v37.027243c0 49.795257 16.598419 94.483308 52.348859 130.233748 72.777683 71.500881 197.904225 54.902462 250.253085-33.196838 44.688051-75.331286 31.920036-167.26099-33.196838-224.717056-30.643235-26.812831-66.393676-40.857646-107.251322-42.134448h-49.795256v-88.0993c47.241654-1.276801 93.206506-1.276801 139.171358 15.321618 54.902462 20.428823 98.313712 54.902462 130.233748 104.697719 63.840073 98.313712 53.625661 225.993857-24.259227 316.64676-77.884889 89.376102-205.565034 117.465734-314.093158 66.393675-111.081726-54.902462-163.430586-160.876983-153.216174-282.173121z" fill="#0A3457" p-id="25327"></path></svg>